<svg width="17" height="19" viewBox="0 0 17 19" fill="none" xmlns="http://www.w3.org/2000/svg">
<path d="M14.2962 17.4588L14.3674 15.1261C14.3834 14.5835 14.5015 14.0553 14.7172 13.5564L16.2747 9.95385C17.3551 7.45485 16.6117 4.64619 14.6668 2.96618C14.8738 2.12004 14.4566 1.22375 13.6372 0.869518C12.8179 0.515287 11.8791 0.825332 11.4046 1.5558C8.84833 1.2898 6.29295 2.67229 5.21254 5.17129L3.65505 8.7738C3.43934 9.27273 3.13545 9.72058 2.7511 10.1039L1.1005 11.7539C0.958009 11.8965 0.89526 12.0996 0.931465 12.2975C0.96823 12.4957 1.09987 12.6613 1.28353 12.7407L5.48809 14.5584C5.58966 15.4001 6.09746 16.1459 6.88546 16.4866C7.67346 16.8273 8.56462 16.6863 9.24738 16.1837L13.4519 18.0015C13.6356 18.0809 13.8464 18.0634 14.0159 17.9544C14.1849 17.8452 14.2898 17.6604 14.2962 17.4588ZM2.58249 11.9782L3.59948 10.962C4.09268 10.4692 4.48385 9.89362 4.76126 9.25196L6.31876 5.64945C7.38268 3.18858 10.2329 2.04561 12.6727 3.10045C15.1126 4.15529 16.2324 7.01462 15.1685 9.47549L13.611 13.078C13.3336 13.7196 13.1822 14.3989 13.1611 15.0958L13.1174 16.5328L2.58249 11.9782Z" fill="white"/>
</svg>
