<svg width="22" height="18" viewBox="0 0 22 18" fill="none" xmlns="http://www.w3.org/2000/svg">
<path d="M20.6997 8.10012H2.74542L9.62043 1.5518C9.98043 1.2089 9.99438 0.639212 9.65148 0.279216C9.30904 -0.0803296 8.73934 -0.0947295 8.3789 0.248166L0.527394 7.72708C0.187648 8.06727 0 8.51907 0 9.00011C0 9.4807 0.187648 9.93295 0.543143 10.288L8.37935 17.7516C8.5535 17.9177 8.77669 18 8.99989 18C9.23749 18 9.47508 17.9064 9.65193 17.7206C9.99483 17.3606 9.98088 16.7913 9.62088 16.4484L2.71707 9.9001H20.6997C21.1965 9.9001 21.5997 9.4969 21.5997 9.00011C21.5997 8.50332 21.1965 8.10012 20.6997 8.10012Z" fill="#35364F"/>
</svg>
